<svg width="1120" height="320" viewBox="0 0 1120 320" fill="none" xmlns="http://www.w3.org/2000/svg" role="img" aria-label="Ipon Challenge">
  <defs>
    <linearGradient id="hd-bg" x1="32" y1="32" x2="288" y2="288" gradientUnits="userSpaceOnUse">
      <stop stop-color="#4D5DB4"/><stop offset="0.55" stop-color="#35408E"/><stop offset="1" stop-color="#232A57"/>
    </linearGradient>
    <linearGradient id="hd-gold" x1="96" y1="96" x2="256" y2="288" gradientUnits="userSpaceOnUse">
      <stop stop-color="#FFD94D"/><stop offset="1" stop-color="#F5B300"/>
    </linearGradient>
  </defs>

  <svg x="16" y="32" width="256" height="256" viewBox="0 0 512 512">
    <rect width="512" height="512" rx="116" fill="url(#hd-bg)"/>
    <circle cx="256" cy="296" r="120" fill="url(#hd-gold)"/>
    <circle cx="256" cy="296" r="100" fill="none" stroke="#232A57" stroke-opacity="0.18" stroke-width="6"/>
    <g stroke="#232A57" stroke-linecap="round" fill="none">
      <path d="M248 224 V372" stroke-width="26"/>
      <path d="M248 228 h26 a48 46 0 0 1 0 92 h-26" stroke-width="26"/>
      <path d="M206 256 H286" stroke-width="16"/>
      <path d="M206 286 H286" stroke-width="16"/>
    </g>
    <polygon points="256,116 340,152 256,188 172,152" fill="url(#hd-gold)" stroke="#232A57" stroke-opacity="0.25" stroke-width="3" stroke-linejoin="round"/>
    <circle cx="256" cy="152" r="7" fill="#232A57" fill-opacity="0.55"/>
    <path d="M340 152 V196" stroke="url(#hd-gold)" stroke-width="6" stroke-linecap="round"/>
    <circle cx="340" cy="202" r="8" fill="url(#hd-gold)"/>
  </svg>

  <!-- Wordmark (for dark backgrounds) -->
  <text x="300" y="190" font-family="'Plus Jakarta Sans','Segoe UI',system-ui,sans-serif" font-size="118" font-weight="800" letter-spacing="-2">
    <tspan fill="#FFFFFF">Ipon</tspan><tspan fill="#FFC91A">Challenge</tspan>
  </text>
  <text x="302" y="248" font-family="'Plus Jakarta Sans','Segoe UI',system-ui,sans-serif" font-size="34" font-weight="600" letter-spacing="2" fill="#A8B0CE">STUDENT BUDGET TRACKER</text>
</svg>
